<?xml version="1.0" standalone="no"?>
<!DOCTYPE svg PUBLIC "-//W3C//DTD SVG 20010904//EN"
 "http://www.w3.org/TR/2001/REC-SVG-20010904/DTD/svg10.dtd">
<svg version="1.0" xmlns="http://www.w3.org/2000/svg"
 width="803.000000pt" height="1088.000000pt" viewBox="0 0 803.000000 1088.000000"
 preserveAspectRatio="xMidYMid meet">
<metadata>
Created by potrace 1.16, written by Peter Selinger 2001-2019
</metadata>
<g transform="translate(0.000000,1088.000000) scale(0.100000,-0.100000)"
fill="#000000" stroke="none">
<path d="M4392 9999 c-15 -24 -14 -27 17 -32 22 -3 41 -22 41 -41 0 -5 -13 -6
-30 -2 -16 3 -30 1 -30 -4 0 -5 17 -10 37 -12 32 -3 38 -7 44 -33 5 -16 9
-148 11 -292 3 -255 2 -262 -17 -266 -12 -3 -6 -5 13 -6 21 -1 32 -6 32 -16 0
-11 12 -15 52 -15 56 0 62 10 7 12 -59 2 -67 33 -73 313 -6 251 -9 282 -26
299 -5 5 -10 19 -10 29 0 21 -37 87 -48 87 -4 0 -13 -9 -20 -21z"/>
<path d="M4357 9917 c-25 -43 -26 -51 -32 -258 -4 -118 -8 -224 -11 -236 -9
-43 -24 -23 -24 32 l0 55 -105 0 c-59 0 -105 4 -105 9 0 6 -19 12 -42 14 l-43
4 45 2 c44 3 44 4 -25 16 -38 7 -58 13 -42 14 23 1 27 5 27 31 0 24 -4 30 -22
31 -22 1 -22 1 2 9 21 7 12 15 -12 11 -5 0 -8 4 -8 10 0 6 9 9 20 6 15 -4 20
0 20 14 0 16 -7 19 -50 19 -37 0 -50 4 -50 14 0 11 15 16 53 19 l52 3 -61 2
c-36 1 -76 -4 -98 -13 l-36 -15 0 -195 0 -195 -60 0 c-33 0 -60 -4 -60 -10 0
-5 -7 -7 -15 -4 -10 4 -15 0 -15 -14 0 -16 -8 -22 -32 -25 -18 -2 271 -4 642
-4 371 1 652 2 623 4 -66 5 -71 23 -24 82 31 40 36 53 39 113 3 43 0 68 -6 68
-6 0 -16 15 -23 34 -7 19 -21 37 -31 39 -20 6 -18 0 21 -52 21 -28 26 -46 26
-91 -1 -49 -5 -62 -34 -98 -18 -23 -36 -42 -40 -42 -6 0 -17 19 -51 88 -10 21
-9 22 17 17 23 -5 25 -4 10 5 -9 6 -15 15 -12 21 4 5 0 9 -7 9 -7 1 -2 7 12
14 l24 14 -24 4 c-14 1 -23 5 -21 8 7 9 -19 50 -32 50 -8 0 -8 -3 2 -9 7 -5
10 -14 6 -20 -5 -8 -12 -6 -24 8 -15 18 -20 19 -36 7 -11 -8 -16 -20 -12 -29
4 -11 2 -14 -9 -10 -7 3 -14 0 -14 -6 0 -6 8 -11 18 -12 13 0 12 -3 -5 -11
-27 -13 -30 -28 -7 -28 14 0 14 -3 4 -15 -7 -9 -10 -18 -6 -22 3 -3 6 -1 6 4
0 15 33 10 38 -5 2 -7 8 -12 13 -12 6 0 7 5 4 10 -3 6 -1 10 4 10 6 0 11 -4
11 -10 0 -5 7 -10 15 -10 8 0 24 -19 36 -42 12 -23 28 -48 35 -56 8 -7 14 -15
14 -18 0 -2 -28 -4 -62 -3 -47 1 -57 3 -38 9 19 6 20 9 8 11 -37 5 -43 4 -40
-8 1 -8 -8 -13 -23 -13 -28 0 -35 20 -7 21 9 0 12 3 5 5 -8 4 -8 14 3 39 23
57 15 73 -12 23 -13 -27 -28 -48 -33 -48 -4 0 -16 9 -26 20 -10 11 -15 20 -11
20 4 0 -5 10 -20 23 -41 35 -45 110 -10 165 14 23 31 42 36 42 6 0 10 7 10 15
0 8 -7 15 -15 15 -8 0 -15 -5 -15 -11 0 -5 -11 -27 -25 -47 -33 -49 -36 -149
-5 -177 11 -10 20 -23 20 -29 0 -6 14 -20 30 -31 16 -11 28 -24 27 -30 -2 -6
-73 -11 -177 -13 -157 -2 -171 -1 -159 14 7 9 12 35 10 60 -1 34 2 44 14 44 8
0 15 -8 15 -17 0 -11 3 -13 9 -7 6 5 6 36 1 79 -15 114 -12 234 5 251 17 18
20 54 5 54 -7 0 -7 6 0 20 6 11 7 20 3 20 -4 0 -8 18 -8 40 0 22 3 40 8 40 4
0 7 -11 7 -25 0 -14 5 -25 10 -25 6 0 10 12 10 26 0 23 3 25 34 23 19 -2 38 0
42 4 4 4 -19 8 -52 9 l-59 1 55 7 c46 6 49 7 20 10 -19 1 -41 2 -48 1 -10 -2
-9 5 4 24 9 14 14 28 12 31 -3 3 -17 -15 -31 -39z m-467 -402 c0 -186 2 -214
15 -209 8 3 17 0 20 -8 4 -10 15 -13 31 -10 14 2 24 0 24 -7 0 -8 -48 -11
-155 -11 -107 0 -155 3 -155 11 0 8 26 10 79 8 94 -5 87 -16 86 144 0 91 2
106 15 102 12 -4 12 -3 -1 7 -8 7 -15 28 -15 46 0 28 3 31 20 27 20 -6 21 -6
2 9 -28 23 -30 81 -2 94 11 6 24 11 29 11 4 1 7 -96 7 -214z m299 -47 l46 -1
-45 -7 -45 -7 45 -3 45 -3 -45 -7 -45 -7 44 -1 c59 -3 48 -11 -17 -13 -70 -3
-66 -19 6 -21 l57 -1 -60 -7 -60 -7 60 -3 60 -3 -45 -7 -45 -7 44 -1 c52 -2
50 -12 -3 -14 -50 -2 -45 -16 7 -21 36 -3 34 -4 -15 -5 -44 -2 -58 -6 -58 -17
0 -9 -9 -15 -25 -15 -25 0 -25 1 -25 88 0 49 3 92 7 96 5 4 21 5 37 2 16 -3
49 -7 75 -8z"/>
<path d="M1606 9103 c-3 -3 -6 -42 -6 -85 l0 -78 -81 0 c-60 0 -80 -3 -77 -12
3 -9 31 -14 81 -16 l76 -3 3 -76 c2 -50 7 -78 16 -81 9 -3 12 17 12 77 l0 80
83 3 c46 2 82 7 82 13 0 6 -36 11 -82 13 l-83 3 0 79 c0 73 -8 99 -24 83z"/>
<path d="M4255 9068 c-2 -7 -11 -305 -20 -662 -8 -357 -16 -651 -18 -652 -2
-2 -46 2 -98 8 -51 7 -202 12 -334 12 -204 1 -249 -2 -299 -17 -107 -33 -177
-126 -272 -362 -54 -136 -189 -405 -254 -510 -159 -255 -336 -427 -545 -530
-157 -79 -254 -98 -450 -92 -334 10 -601 121 -680 282 -19 38 -20 61 -19 415
0 393 13 600 56 930 11 91 21 185 22 210 1 39 -2 45 -21 48 -16 2 -25 -3 -32
-20 -18 -48 -61 -442 -85 -783 -29 -412 -12 -892 45 -1260 52 -333 188 -739
389 -1160 288 -603 340 -727 394 -944 39 -152 49 -246 44 -413 -4 -120 -10
-179 -32 -273 -114 -493 -444 -1302 -979 -2400 -104 -214 -190 -401 -191 -415
-1 -19 5 -26 22 -28 21 -3 38 29 201 360 236 479 445 935 622 1357 l44 103
1055 499 c580 275 1084 513 1120 530 57 28 238 113 535 254 50 23 261 123 470
222 1848 873 2382 1128 2392 1141 18 22 -2 55 -28 47 -10 -4 -157 -72 -325
-151 -168 -80 -307 -144 -308 -142 -1 2 -15 64 -30 138 -124 608 -273 925
-567 1204 -373 355 -835 481 -1603 437 -114 -7 -211 -10 -214 -6 -5 5 3 432
37 1880 10 400 13 728 9 738 -10 20 -47 23 -53 5z m-172 -1369 c67 -6 125 -14
129 -17 4 -4 2 -236 -4 -516 l-12 -509 -125 7 c-69 3 -223 8 -341 11 -118 4
-237 11 -263 17 -50 11 -66 29 -81 93 -20 84 -116 176 -228 218 l-46 18 54
110 c30 61 76 161 101 222 54 133 86 197 125 255 60 87 108 100 371 101 109 1
253 -4 320 -10z m-915 -773 c87 -44 126 -84 152 -154 30 -84 44 -105 87 -127
l39 -20 0 -80 c0 -74 3 -86 42 -164 35 -71 42 -95 42 -144 0 -59 -1 -61 -53
-111 -29 -28 -77 -71 -106 -95 -75 -62 -91 -92 -91 -171 0 -36 4 -81 10 -99 5
-19 8 -37 5 -39 -2 -2 -56 24 -120 59 -131 70 -123 56 -90 169 53 178 -73 341
-243 315 -64 -9 -84 -22 -80 -48 3 -21 7 -22 83 -19 71 3 84 1 115 -20 70 -47
90 -146 50 -250 -24 -63 -25 -87 -5 -115 26 -37 443 -256 920 -482 l230 -110
3 -68 c5 -127 -36 -1685 -44 -1693 -7 -7 -1281 -613 -1649 -785 -138 -64 -650
-307 -658 -312 -4 -2 2 20 14 49 205 517 307 867 324 1113 8 107 -8 292 -36
423 -45 206 -118 393 -309 792 -363 758 -473 1107 -523 1662 l-3 36 50 -44
c137 -124 481 -217 737 -200 185 12 358 71 515 176 154 104 344 319 472 534
18 31 38 56 43 56 5 0 40 -15 77 -34z m780 -322 l242 -7 0 -86 c1 -164 -21
-1136 -26 -1178 l-5 -41 -77 35 c-42 19 -227 109 -410 198 -378 186 -360 171
-370 311 -6 94 6 115 121 209 113 92 129 116 128 197 0 51 -7 75 -40 144 -40
81 -48 120 -43 208 l2 29 118 -6 c64 -4 226 -10 360 -13z m1282 -243 c396 -72
709 -251 942 -540 197 -244 307 -517 412 -1019 34 -163 34 -166 -11 -184 -21
-9 -263 -123 -538 -253 -275 -130 -527 -250 -560 -265 -33 -15 -118 -56 -190
-90 -71 -34 -285 -135 -475 -225 -190 -90 -403 -190 -473 -224 -71 -34 -133
-61 -138 -61 -5 0 -9 8 -9 18 -2 64 64 2848 67 2851 9 12 230 19 523 17 287
-3 340 -5 450 -25z"/>
<path d="M3200 6475 c0 -15 -19 -19 -74 -15 -16 1 -33 -4 -37 -12 -7 -10 -9
-10 -9 0 0 14 -56 17 -65 3 -3 -5 7 -12 22 -14 16 -2 4 -2 -24 0 -51 4 -74 -9
-35 -21 9 -2 4 -4 -13 -3 -23 2 -30 7 -30 22 0 15 8 21 33 23 42 4 42 22 -1
22 -38 0 -57 -15 -57 -46 0 -34 19 -42 112 -43 82 0 87 1 90 22 4 31 36 35 40
5 2 -18 10 -24 36 -26 l32 -3 0 50 c0 28 -4 51 -10 51 -5 0 -10 -7 -10 -15z"/>
<path d="M5040 6640 c-1 -14 -2 -33 -1 -42 2 -15 -6 -18 -38 -18 -37 0 -41 2
-41 25 0 21 5 25 30 25 17 0 30 5 30 10 0 14 -54 12 -68 -2 -16 -16 -15 -53 3
-68 23 -19 89 -9 95 15 9 31 40 32 40 1 0 -14 5 -26 10 -26 6 0 10 5 10 12 0
9 3 9 12 0 7 -7 25 -12 40 -12 15 0 28 5 28 12 0 9 3 9 12 0 16 -16 28 -15 28
3 0 8 5 15 10 15 6 0 10 -7 10 -15 0 -27 25 -16 38 17 13 35 6 53 -10 25 -9
-18 -10 -18 -23 0 -13 17 -14 17 -28 -1 -12 -17 -14 -17 -20 -2 -7 19 -67 22
-84 5 -8 -8 -13 -8 -17 0 -4 6 -18 11 -31 11 -14 0 -25 7 -28 18 -3 12 -5 10
-7 -8z"/>
<path d="M2230 1880 c0 -5 -9 -10 -20 -10 -15 0 -20 -7 -20 -25 0 -18 -5 -25
-20 -25 -15 0 -20 7 -20 25 0 14 -4 25 -10 25 -5 0 -10 -6 -10 -12 0 -10 -2
-10 -8 -1 -4 7 -32 12 -65 12 l-57 0 0 -35 c0 -19 5 -34 10 -34 6 0 10 11 10
25 0 32 27 34 32 3 4 -27 41 -36 65 -16 13 10 17 10 20 1 3 -7 20 -13 39 -13
30 0 34 3 34 25 0 14 5 25 10 25 6 0 10 -11 10 -25 0 -24 3 -25 54 -25 59 0
80 15 51 37 -11 7 -13 13 -7 13 7 0 12 5 12 10 0 6 -13 10 -30 10 -23 0 -30
-5 -30 -19 0 -11 8 -22 18 -24 9 -3 2 -5 -15 -6 -33 -1 -48 22 -21 31 9 3 8 9
-4 21 -19 19 -28 21 -28 7z"/>
<path d="M1279 823 c-16 -4 -56 -63 -42 -63 4 0 3 -4 -3 -8 -6 -4 -19 -22 -28
-39 l-16 -32 41 -22 c23 -11 44 -17 48 -12 20 24 63 133 58 146 -7 19 -37 35
-58 30z"/>
</g>
</svg>
