<?xml version="1.0" encoding="UTF-8"?><svg id="Layer_1" xmlns="http://www.w3.org/2000/svg" viewBox="0 0 192 192"><defs><style>.cls-1{fill:#ad7e56;}.cls-2{fill:#212c36;}</style></defs><rect class="cls-2" x="-2.7" y="-5.88" width="202.85" height="204.47"/><g><path class="cls-1" d="M75.45,75.11c-.14,.2-.28,.39-.42,.57-.14,.18-.28,.35-.44,.53-.18,.4-.35,.82-.51,1.25-.16,.42-.3,.89-.4,1.4v.2c0,.07,.01,.12,.04,.16,.17-.06,.34-.2,.53-.41,.19-.21,.38-.46,.58-.74,.2-.29,.4-.59,.61-.91,.21-.32,.41-.64,.6-.94,.01-.04,.04-.09,.08-.16,.04-.07,.1-.14,.15-.22,.06-.08,.11-.14,.17-.18,.06-.04,.12-.06,.18-.05,.08,.04,.1,.13,.06,.27-.03,.14-.08,.31-.14,.52-.06,.21-.13,.44-.18,.7-.06,.25-.07,.51-.05,.78,.08-.04,.15-.09,.22-.15,.07-.06,.14-.15,.22-.25s.16-.25,.26-.42c.09-.17,.21-.39,.35-.64,.04-.09,.08-.18,.13-.29,.04-.1,.12-.16,.24-.17,.05,.02,.08,.06,.11,.11,.02,.05,.03,.11,.04,.17,0,.06,.01,.13,.02,.2,0,.07,.03,.13,.07,.16,.02,.02,.04,.05,.06,.06,.01,.02,.03,.04,.04,.07,.09,.08,.19,.14,.3,.18s.24,.08,.38,.11c.23,.01,.43,0,.61-.04,.18-.04,.34-.09,.49-.15,.1-.03,.19-.08,.27-.15s.18-.09,.27-.04c.03,.08,.01,.13-.05,.18-.06,.04-.12,.08-.18,.1-.06,.03-.12,.06-.18,.09-.06,.03-.11,.06-.16,.08-.14,.08-.31,.13-.5,.16s-.39,.04-.58,.03c-.19-.01-.37-.05-.54-.11-.17-.06-.31-.15-.41-.25-.04-.06-.08-.12-.11-.18-.04-.06-.06-.13-.06-.24-.11,.14-.21,.3-.3,.47-.08,.17-.18,.32-.27,.46-.11,.14-.23,.29-.33,.46s-.28,.25-.52,.25c-.1-.05-.16-.15-.18-.29-.02-.14-.02-.29,0-.46,.02-.16,.05-.33,.1-.5,.04-.17,.08-.32,.1-.45-.18,.25-.36,.53-.54,.82-.18,.29-.37,.57-.56,.84-.32,.44-.58,.79-.8,1.04-.22,.25-.46,.38-.72,.38-.15-.09-.23-.25-.23-.49,0-.37,.07-.72,.2-1.06,.13-.34,.25-.66,.35-.95-.02,.01-.07,.02-.13,.03-.06,0-.1-.02-.11-.07,.01-.09,.05-.17,.11-.24,.06-.07,.11-.13,.16-.2,.23-.3,.44-.64,.64-1.01,.2-.37,.42-.71,.68-1.04,.04-.05,.08-.12,.14-.2,.06-.08,.12-.16,.18-.23,.06-.07,.13-.13,.2-.18,.07-.05,.13-.08,.2-.08,.1,0,.16,.04,.17,.1,.01,.07,0,.15-.04,.23-.04,.08-.08,.17-.13,.25s-.09,.14-.11,.18c-.06,.1-.13,.2-.2,.28-.07,.09-.14,.18-.2,.27Z"/><path class="cls-1" d="M84.92,77.32c-.11,.06-.27,.16-.46,.3-.2,.13-.42,.28-.68,.44-.25,.16-.53,.32-.84,.47s-.62,.28-.93,.38c-.14,.04-.29,.08-.46,.11-.17,.04-.33,.06-.49,.06s-.32-.01-.48-.05-.28-.1-.4-.2c-.11-.06-.2-.17-.27-.3-.06-.14-.11-.29-.13-.46-.02-.17-.02-.33,0-.51,.01-.17,.05-.32,.11-.46-.08-.04-.15-.08-.22-.11s-.09-.13-.07-.27c.04-.08,.1-.12,.18-.13,.08,0,.18,0,.28,.03,.08-.13,.15-.26,.22-.39,.07-.13,.15-.25,.26-.35,.03-.04,.07-.09,.14-.16s.14-.13,.22-.19c.08-.06,.15-.09,.23-.11,.08-.01,.14,.02,.19,.1,.05,.08,.07,.15,.05,.24-.02,.08-.05,.17-.11,.25-.05,.08-.11,.16-.17,.23-.06,.07-.11,.12-.15,.16-.22,.25-.46,.46-.74,.61-.06,.2-.11,.44-.14,.71s0,.5,.11,.68c.13,.2,.31,.33,.55,.38,.24,.05,.49,.05,.76,0,.29-.05,.59-.14,.9-.27,.31-.13,.62-.27,.93-.45,.31-.17,.61-.35,.89-.53,.29-.18,.55-.36,.79-.54,.23-1.14,.54-2.22,.94-3.24s.85-1.93,1.35-2.72,1.02-1.44,1.57-1.95c.55-.51,1.07-.81,1.58-.91,.19-.03,.34,0,.46,.06,.09,.04,.16,.09,.21,.15,.05,.06,.1,.14,.15,.23,.08,.27,.09,.53,.04,.78s-.12,.49-.21,.72c-.23,.62-.56,1.25-1,1.89-.44,.64-.92,1.26-1.44,1.86s-1.08,1.17-1.65,1.7c-.58,.53-1.12,1.01-1.63,1.43-.08,.42-.15,.87-.23,1.34-.08,.48-.14,.96-.2,1.46-.06,.5-.09,1.01-.11,1.53-.02,.52,0,1.04,.05,1.56,.01,.14,.03,.29,.06,.46s.06,.32,.11,.47c.04,.14,.11,.27,.18,.38,.08,.11,.17,.18,.28,.22,.08,.03,.17,.03,.27,.01,.1-.02,.17,.02,.19,.12-.01,.08-.05,.13-.11,.15-.06,.03-.13,.04-.22,.03-.08,0-.17-.02-.25-.05-.08-.02-.14-.05-.18-.08-.08-.08-.14-.13-.19-.17-.27-.41-.42-.93-.47-1.56-.05-.63-.06-1.28-.02-1.94,.03-.65,.08-1.27,.15-1.87,.08-.6,.16-1.17,.27-1.72Zm-4.24-1.16c.06-.05,.12-.11,.17-.17,.05-.06,.1-.13,.15-.19-.06,.05-.12,.11-.17,.17-.05,.06-.1,.13-.15,.19Zm9.54-4.79c.2-.37,.39-.73,.58-1.09,.18-.36,.28-.82,.3-1.38-.03-.15-.08-.28-.15-.37-.08-.1-.2-.14-.38-.14-.22,0-.43,.06-.64,.19-.21,.13-.4,.26-.56,.4-.15,.13-.32,.29-.51,.48-.19,.2-.38,.42-.57,.67-.19,.25-.38,.51-.56,.8-.18,.29-.35,.57-.5,.87-.39,.72-.73,1.48-1.03,2.28-.29,.8-.55,1.65-.76,2.55,.51-.38,1-.8,1.49-1.26,.49-.46,.94-.93,1.36-1.39,.42-.46,.79-.92,1.12-1.37s.6-.86,.82-1.23Z"/><path class="cls-1" d="M90,75.49c-.19,.01-.34,.06-.44,.15-.11,.09-.22,.18-.33,.27-.13,.13-.27,.27-.42,.44-.15,.17-.3,.34-.44,.54-.14,.2-.26,.41-.35,.63-.1,.23-.14,.46-.14,.7,0,.15,.03,.3,.09,.45,.06,.15,.17,.25,.31,.31,.29,.09,.56,.08,.8-.03,.24-.11,.46-.23,.66-.37,.41-.25,.73-.48,.97-.69,.24-.2,.53-.42,.86-.66,.06-.06,.13-.12,.21-.17,.08-.05,.16-.11,.25-.17,.06-.06,.13-.13,.21-.19,.08-.06,.17-.09,.27-.08,.03,.08,.02,.13-.03,.18-.05,.04-.09,.08-.13,.1-.51,.38-.96,.74-1.37,1.07-.41,.33-.78,.61-1.11,.84-.34,.23-.65,.39-.92,.47-.28,.09-.55,.08-.82-.02-.33-.19-.51-.51-.55-.97-.03-.42,.06-.79,.25-1.1s.37-.6,.55-.84c.2-.25,.42-.49,.65-.71,.24-.22,.52-.39,.85-.51,.01,0,.02,0,.02,0s0,0,.02,0c.06,0,.11,0,.15,0s.08,.02,.11,.03c.14,.08,.2,.2,.19,.37-.01,.17-.05,.34-.11,.5-.04,.08-.08,.15-.13,.21-.05,.06-.09,.13-.11,.19-.02,.06-.05,.14-.08,.24-.02,.1-.1,.13-.23,.11-.08-.01-.12-.05-.13-.11-.01-.06,0-.12,0-.18,.02-.06,.04-.13,.08-.19,.03-.06,.07-.11,.11-.13,.05-.11,.1-.22,.15-.32,.05-.1,.08-.22,.09-.36Z"/><path class="cls-1" d="M92.7,76.92c.4,.14,.82,.16,1.25,.07,.43-.09,.8-.2,1.12-.33,.04-.02,.08-.05,.14-.07,.06-.02,.1,0,.13,.07-.01,.1-.06,.16-.15,.18-.09,.02-.17,.05-.23,.08-.29,.14-.65,.25-1.08,.32-.42,.07-.83,.05-1.21-.05-.05,.17-.11,.32-.16,.47-.06,.15-.14,.28-.24,.41-.08,.11-.17,.23-.29,.33-.11,.11-.27,.16-.48,.16l-.11-.06c-.06-.04-.11-.11-.15-.23,0-.24,.05-.46,.13-.68,.09-.21,.18-.41,.28-.6,.1-.18,.21-.35,.32-.52,.11-.17,.23-.32,.37-.44,.04-.04,.11-.08,.21-.13,.08-.01,.13,0,.16,.04,.03,.04,.06,.08,.09,.13-.01,.1-.04,.19-.08,.27l-.11,.23c.05,.09,.08,.21,.08,.36Zm-1.08,1.26c.2-.05,.38-.2,.54-.46,.16-.25,.23-.49,.22-.7-.03,0-.04,.02-.06,.07-.01,.04-.05,.06-.1,.06-.09,0-.13-.05-.13-.15-.1,.18-.2,.36-.3,.53-.1,.18-.15,.39-.18,.65Z"/><path class="cls-1" d="M97.2,74.85c.1,.14,.13,.29,.09,.46-.04,.17-.08,.32-.11,.46-.11,.44-.23,.89-.34,1.34s-.2,.93-.25,1.44c.09-.05,.17-.13,.24-.23,.07-.1,.13-.2,.2-.3s.13-.2,.2-.29c.07-.09,.14-.18,.2-.28,.08-.09,.15-.19,.22-.3s.14-.21,.21-.31,.15-.19,.23-.26,.18-.12,.27-.14c.09,.04,.15,.1,.18,.17s.05,.16,.05,.27,0,.2-.03,.31c-.02,.11-.03,.21-.03,.3-.03,.22-.04,.42-.04,.63s.05,.37,.15,.49c.13-.01,.24-.05,.34-.11,.1-.06,.2-.12,.3-.18,.32-.19,.62-.41,.92-.65,.3-.25,.64-.53,1.02-.87,.06-.05,.13-.1,.19-.15,.06-.05,.13-.04,.21,.02,.01,.09-.01,.15-.08,.19s-.13,.08-.18,.13c-.05,.06-.1,.11-.15,.15s-.11,.08-.17,.13c-.29,.23-.62,.51-.98,.83-.36,.32-.73,.56-1.11,.71-.25,.1-.43,.08-.53-.06-.1-.14-.16-.33-.18-.57-.02-.24-.01-.5,.02-.78,.03-.28,.05-.51,.05-.68-.24,.23-.46,.5-.66,.81-.2,.31-.4,.61-.62,.9-.05,.08-.12,.18-.21,.3-.09,.13-.2,.18-.32,.15-.13-.01-.19-.16-.18-.44,0-.28,.05-.61,.12-1s.17-.79,.28-1.2c.11-.41,.19-.76,.25-1.06-.52,.52-.98,1.11-1.38,1.76s-.8,1.3-1.21,1.95c-.06,.09-.12,.18-.18,.27-.06,.1-.14,.15-.26,.18-.06,0-.11-.02-.14-.05-.03-.03-.06-.08-.09-.14,.03-.15,.06-.3,.11-.44,.04-.14,.1-.3,.17-.47,.07-.18,.16-.39,.27-.64,.11-.25,.24-.56,.41-.94,.03-.05,.06-.13,.1-.24,.04-.11,.08-.2,.12-.28s.1-.14,.17-.16c.07-.03,.14,0,.22,.09,.01,.2-.03,.38-.11,.52-.09,.15-.13,.31-.11,.5,.15-.19,.3-.39,.44-.6,.14-.21,.28-.42,.43-.62,.15-.2,.3-.39,.47-.58,.16-.18,.35-.35,.55-.51,.05-.02,.1-.03,.15-.02,.05,.01,.09,.03,.11,.06Zm-2.61,2.98c.06-.1,.13-.2,.19-.3,.06-.1,.13-.2,.19-.3-.05,0-.1,0-.13-.02-.03,.11-.06,.22-.11,.31-.05,.1-.1,.2-.13,.31Z"/><path class="cls-1" d="M105.49,76.6c-.03,.11-.09,.19-.2,.23-.11,.04-.2,.09-.27,.15-.26,.18-.51,.35-.76,.52-.26,.17-.51,.34-.78,.52-.21,.15-.44,.31-.68,.47-.24,.17-.49,.31-.73,.43-.25,.12-.49,.2-.71,.24s-.44,0-.65-.13c-.11-.09-.19-.21-.23-.38-.04-.16-.05-.34-.04-.52s.05-.36,.11-.52c.06-.16,.12-.3,.18-.42-.05,0-.1,.01-.16,.04-.06,.03-.1,0-.12-.06,0-.09,.04-.13,.13-.13s.17-.01,.23-.04c.08-.11,.16-.23,.24-.36,.08-.13,.17-.25,.26-.36,.09-.11,.19-.21,.31-.3,.12-.08,.26-.14,.41-.18,.05,0,.09,0,.12,.02,.02,.01,.05,.03,.07,.06l.06,.11c-.06,.32-.2,.56-.4,.72-.2,.16-.44,.3-.7,.4-.1,.19-.19,.39-.27,.59s-.12,.45-.11,.74c.04,.23,.16,.37,.36,.42,.27-.01,.51-.06,.72-.14,.21-.08,.41-.18,.58-.29,.18-.11,.36-.22,.53-.34,.18-.12,.35-.23,.54-.33,.24-.16,.49-.33,.73-.49,.25-.16,.5-.32,.75-.47,.07-.04,.14-.1,.23-.17,.08-.08,.18-.08,.26-.02Zm-4.14,.23c.13-.1,.26-.21,.39-.32,.14-.11,.22-.25,.25-.43-.14,.09-.27,.2-.37,.33-.11,.13-.19,.27-.26,.41Z"/><path class="cls-1" d="M113.82,72.24c.2-.01,.53-.03,.97-.05,.44-.02,.91-.02,1.39,0,.48,.01,.93,.04,1.35,.08,.42,.04,.71,.13,.87,.26,.02,.03,.04,.06,.09,.11s.08,.11,.12,.17c.03,.06,.04,.13,.04,.18,0,.06-.05,.09-.12,.11-.09,.03-.17-.01-.24-.11s-.13-.18-.2-.23c-.18-.09-.47-.15-.87-.19-.41-.04-.84-.06-1.3-.07-.46,0-.91,0-1.34,0-.42,.01-.74,.02-.94,.02-.25,.3-.51,.64-.79,1-.27,.36-.66,.83-1.17,1.4-.35,.38-.71,.76-1.06,1.13s-.74,.71-1.16,1.02c-.08,.28-.16,.58-.24,.91-.08,.33-.14,.66-.18,.99-.02,.37-.02,.72,.01,1.07,.03,.35,.16,.61,.39,.79,.26,.04,.51-.03,.76-.19,.24-.16,.43-.32,.58-.46,.34-.27,.68-.56,1.03-.87s.68-.63,1.01-.95c.33-.32,.64-.65,.94-.97,.3-.32,.57-.63,.81-.92,.05-.06,.09-.13,.13-.2,.04-.07,.11-.09,.19-.06,.06,.09,.06,.16-.01,.23-.07,.06-.12,.12-.16,.17-.14,.18-.29,.36-.44,.53-.15,.18-.3,.35-.46,.51-.22,.23-.43,.45-.63,.68-.2,.22-.42,.43-.64,.64-.22,.23-.44,.44-.67,.65s-.46,.41-.7,.61c-.11,.06-.22,.15-.33,.26-.12,.11-.25,.22-.38,.32-.13,.11-.28,.2-.44,.27-.16,.07-.33,.09-.52,.07-.12-.01-.21-.05-.29-.11-.08-.06-.15-.12-.21-.2-.15-.23-.25-.5-.29-.83-.04-.32-.04-.65-.02-.99s.07-.67,.14-.99c.07-.32,.15-.61,.22-.87-.03-.06-.05-.11-.08-.14-.03-.03-.04-.08-.02-.14,.03-.06,.06-.1,.09-.11,.04-.01,.08-.02,.14-.04,.23-.75,.5-1.45,.81-2.1,.31-.65,.65-1.28,1.02-1.89-.76,.06-1.48,.15-2.17,.27s-1.41,.19-2.19,.23c-.13-.02-.24-.06-.33-.11-.09-.05-.14-.14-.14-.27,0-.09,.04-.15,.11-.2s.16-.07,.27-.08c.1-.01,.2-.01,.31,0,.11,.01,.2,.03,.28,.06,.04,.04,.04,.08,.02,.13-.03,.05-.04,.08-.04,.09,.66-.04,1.33-.1,2-.18,.67-.08,1.35-.15,2.03-.2,.32-.44,.67-.91,1.05-1.39,.38-.48,.81-.9,1.29-1.26,.15-.1,.32-.21,.51-.33,.19-.12,.39-.18,.61-.18,.34,0,.49,.19,.46,.57-.03,.23-.1,.45-.21,.66-.12,.22-.23,.42-.34,.61-.12,.2-.25,.39-.37,.57-.12,.18-.24,.35-.35,.51Zm-2.38,.44c-.37,.6-.71,1.22-1.02,1.86s-.58,1.33-.82,2.05c.65-.6,1.29-1.24,1.9-1.92s1.19-1.39,1.75-2.11c0-.01,0-.02-.02-.02-.29,.03-.59,.05-.89,.07-.3,.02-.6,.04-.89,.07Zm2.2-2.59c-.4,.32-.78,.68-1.13,1.09s-.65,.82-.91,1.23c.31-.03,.61-.05,.92-.07,.31-.02,.63-.04,.94-.07,.19-.27,.39-.54,.58-.83,.2-.28,.38-.58,.54-.88,.06-.14,.13-.29,.19-.45,.06-.16,.08-.33,.04-.5-.22-.05-.43-.01-.64,.11-.21,.13-.39,.25-.54,.36Z"/><path class="cls-1" d="M114.75,76.92c.4,.14,.83,.16,1.25,.07,.43-.09,.81-.2,1.12-.33,.04-.02,.09-.05,.15-.07,.05-.02,.09,0,.12,.07-.01,.1-.06,.16-.15,.18-.09,.02-.16,.05-.23,.08-.29,.14-.65,.25-1.08,.32-.43,.07-.83,.05-1.21-.05-.05,.17-.11,.32-.16,.47s-.13,.28-.24,.41c-.08,.11-.17,.23-.28,.33-.12,.11-.27,.16-.48,.16l-.11-.06c-.06-.04-.12-.11-.15-.23,0-.24,.04-.46,.13-.68,.09-.21,.19-.41,.29-.6,.11-.18,.2-.35,.32-.52,.11-.17,.23-.32,.37-.44,.04-.04,.11-.08,.21-.13,.08-.01,.13,0,.16,.04,.03,.04,.06,.08,.08,.13-.01,.1-.04,.19-.08,.27-.04,.08-.08,.15-.11,.23,.05,.09,.08,.21,.08,.36Zm-1.09,1.26c.2-.05,.39-.2,.54-.46,.16-.25,.23-.49,.22-.7-.03,0-.05,.02-.06,.07-.01,.04-.05,.06-.09,.06-.09,0-.13-.05-.13-.15-.11,.18-.2,.36-.3,.53-.09,.18-.15,.39-.18,.65Z"/></g><g><path class="cls-1" d="M69.64,107.45c0,3.9-4.07,5.73-7.32,5.73-1.42,0-3.9-.31-5.78-1.75l-.38-2.91c.64,1.93,2.72,4.37,6.16,4.37,3.01,0,5.41-1.9,5.41-4.93,0-6.21-10.71-5.17-11.01-10.99-.18-3.49,2.52-4.93,5.89-4.93,1.91,0,3.63,.5,5.27,1.86l.29,2.57c-.83-2.3-2.53-4.14-5.56-4.14-2.79,0-4.43,1.65-4.4,3.94,.06,4.94,11.44,4.26,11.44,11.18Z"/><path class="cls-1" d="M84.48,94.61h-.14c-.33-.72-.86-2-2.43-2h-4v19.43c0,.43,.29,.71,.86,.71v.14h-3.43v-.14c.57,0,.86-.29,.86-.71v-19.43h-4c-1.57,0-2.1,1.28-2.43,2h-.14l.86-2.29h13.14l.86,2.29Z"/><path class="cls-1" d="M111.07,115.07c-2.13,1.82-12.17,5.71-17.33-7.56l-.63-1.61h-8.09l-2.08,6.25c-.1,.36,.08,.61,.61,.61v.14h-2v-.14c.57,0,1-.29,1.14-.71l6.57-19.71h.29l6.31,16.07c4.47,11.52,13.56,7.9,15.15,6.55l.06,.12Zm-18.07-9.45l-4.24-10.91-3.64,10.91h7.88Z"/><path class="cls-1" d="M111.01,92.33v.14c-.57,0-1.09,.28-1.32,.71l-5.53,10.14v8.71c0,.43,.29,.71,.86,.71v.14h-3.43v-.14c.57,0,.86-.29,.86-.71v-8.71l-5.93-10.14c-.25-.43-.79-.71-1.36-.71v-.14h3.71v.14c-.57,0-.61,.3-.37,.71l5.56,9.8,5.35-9.8c.23-.43,.18-.71-.39-.71v-.14h2Z"/><path class="cls-1" d="M114.61,112.78v.12h-2.82v-.12c.47,0,.71-.24,.71-.59v-13.75c0-.35-.24-.59-.71-.59h-.35v-.12c1.64-.56,2.35-1.76,2.35-1.76h.12v16.22c0,.35,.24,.59,.71,.59Z"/><path class="cls-1" d="M125.66,110.78h.12v2.12h-9.29c1.91-8.23,7.88-8.47,7.88-13.52,0-1.21-.71-3.41-2.59-3.41-2.35,0-3.67,1.52-4.35,3.41l.24-2.12c1.41-1.18,2.54-1.53,4.11-1.53,2.12,0,4.11,1.44,4.11,4,0,4.73-6.29,4.93-8.74,11.76h7.92c.35,0,.59-.24,.59-.71Z"/><path class="cls-1" d="M135.84,95.97s-4.7,7.58-4.7,16.93h-1.41c0-7.54,5.1-15.52,5.1-15.52h-6.74c-.35,0-.59,.24-.59,.71h-.12v-2.12h8.46Z"/><rect class="cls-1" x="67.48" y="121.31" width=".33" height="2.51"/><polygon class="cls-1" points="72.33 121.31 72.33 123.81 72.02 123.81 70.31 121.64 70.31 123.81 69.99 123.81 69.99 121.31 70.45 121.31 72.01 123.29 72.01 121.31 72.33 121.31"/><path class="cls-1" d="M74.34,123.48l.16-.27c.28,.22,.66,.34,1.05,.34,.52,0,.8-.15,.8-.46,0-.24-.22-.34-.82-.38-.78-.05-1.09-.25-1.09-.7,0-.47,.4-.76,1.08-.76,.4,0,.75,.1,1.02,.3l-.15,.27c-.24-.18-.55-.27-.9-.27-.44,0-.71,.17-.71,.44,0,.24,.22,.34,.82,.38,.78,.05,1.09,.25,1.09,.7,0,.5-.41,.77-1.14,.77-.47,0-.9-.13-1.21-.37Z"/><path class="cls-1" d="M80.99,122.07c0,.49-.31,.77-.85,.77h-1.11v.97h-.33v-2.51h1.44c.55,0,.85,.28,.85,.77Zm-.34,0c0-.32-.19-.48-.58-.48h-1.04v.96h1.04c.39,0,.58-.16,.58-.48Z"/><rect class="cls-1" x="83.02" y="121.31" width=".33" height="2.51"/><path class="cls-1" d="M87.57,123.81l-.74-1.03h-.97v1.03h-.33v-2.51h1.5c.52,0,.82,.27,.82,.74,0,.41-.23,.67-.64,.73l.76,1.04h-.4Zm-1.71-1.32h1.11c.36,0,.54-.15,.54-.45s-.18-.45-.54-.45h-1.11v.9Z"/><polygon class="cls-1" points="90.3 121.59 90.3 122.4 91.91 122.4 91.91 122.69 90.3 122.69 90.3 123.52 92.15 123.52 92.15 123.81 89.97 123.81 89.97 121.31 92.15 121.31 92.15 121.59 90.3 121.59"/><path class="cls-1" d="M96.58,122.56c0,.76-.51,1.25-1.29,1.25h-1.12v-2.51h1.12c.79,0,1.29,.49,1.29,1.25Zm-.34,0c0-.6-.38-.97-.99-.97h-.75v1.93h.75c.61,0,.99-.37,.99-.97Z"/><polygon class="cls-1" points="103.35 121.59 102.34 121.59 102.34 123.81 102.01 123.81 102.01 121.59 101 121.59 101 121.31 103.35 121.31 103.35 121.59"/><path class="cls-1" d="M107.37,123.81l-.74-1.03h-.97v1.03h-.33v-2.51h1.5c.52,0,.82,.27,.82,.74,0,.41-.23,.67-.64,.73l.76,1.04h-.4Zm-1.71-1.32h1.11c.36,0,.54-.15,.54-.45s-.18-.45-.54-.45h-1.11v.9Z"/><path class="cls-1" d="M111.58,123.15h-1.37l-.31,.66h-.35l1.18-2.51h.34l1.18,2.51h-.36l-.31-.66Zm-1.24-.29h1.11l-.55-1.2-.56,1.2Z"/><polygon class="cls-1" points="116.24 121.31 115.1 123.81 114.77 123.81 113.63 121.31 114 121.31 114.95 123.42 115.89 121.31 116.24 121.31"/><polygon class="cls-1" points="118.54 121.59 118.54 122.4 120.16 122.4 120.16 122.69 118.54 122.69 118.54 123.52 120.4 123.52 120.4 123.81 118.21 123.81 118.21 121.31 120.4 121.31 120.4 121.59 118.54 121.59"/><polygon class="cls-1" points="124.52 123.52 124.52 123.81 122.41 123.81 122.41 121.31 122.74 121.31 122.74 123.52 124.52 123.52"/></g></svg>